STARTFONT 2.1
COMMENT
COMMENT Converted from OpenType font "Pokemon Hollow.ttf" by "otf2bdf 3.0".
COMMENT
FONT -FreeType-Pokemon Hollow-Medium-R-Normal--14-100-100-100-P-96-ISO10646-1
SIZE 10 100 100
FONTBOUNDINGBOX 24 24 -4 -6
STARTPROPERTIES 19
FOUNDRY "FreeType"
FAMILY_NAME "Pokemon Hollow"
WEIGHT_NAME "Medium"
SLANT "R"
SETWIDTH_NAME "Normal"
ADD_STYLE_NAME ""
PIXEL_SIZE 14
POINT_SIZE 100
RESOLUTION_X 100
RESOLUTION_Y 100
SPACING "P"
AVERAGE_WIDTH 96
CHARSET_REGISTRY "ISO10646"
CHARSET_ENCODING "1"
FONT_ASCENT 14
FONT_DESCENT 5
COPYRIGHT "-FreeType-Pokemon Hollow-Medium-R-Normal--14-100-100-100-P-96-ISO10646-1"
_OTF_FONTFILE "Pokemon Hollow.ttf"
_OTF_PSNAME "PokemonHollowNormal"
ENDPROPERTIES
CHARS 194
STARTCHAR 0020
ENCODING 32
SWIDTH 504 0
DWIDTH 7 0
BBX 0 0 0 0
BITMAP
ENDCHAR
STARTCHAR 0021
ENCODING 33
SWIDTH 216 0
DWIDTH 3 0
BBX 4 14 -1 0
BITMAP
10
F0
90
90
90
90
90
90
90
60
00
20
50
70
ENDCHAR
STARTCHAR 0022
ENCODING 34
SWIDTH 432 0
DWIDTH 6 0
BBX 7 4 -1 8
BITMAP
EE
AA
AA
EE
ENDCHAR
STARTCHAR 0023
ENCODING 35
SWIDTH 576 0
DWIDTH 8 0
BBX 8 9 0 5
BITMAP
32
36
69
81
5A
DA
82
DA
6C
ENDCHAR
STARTCHAR 0024
ENCODING 36
SWIDTH 504 0
DWIDTH 7 0
BBX 11 17 -2 -2
BITMAP
0600
0A00
1900
60E0
4C40
53C0
4800
2400
1300
0880
0680
6140
9E40
8080
7180
1600
0C00
ENDCHAR
STARTCHAR 0026
ENCODING 38
SWIDTH 576 0
DWIDTH 8 0
BBX 10 15 -1 -1
BITMAP
0E00
3200
41C0
4040
5C40
53C0
2800
4600
9A00
A400
A000
9F80
4080
3700
1C00
ENDCHAR
STARTCHAR 0027
ENCODING 39
SWIDTH 216 0
DWIDTH 3 0
BBX 3 4 0 8
BITMAP
E0
A0
A0
E0
ENDCHAR
STARTCHAR 0028
ENCODING 40
SWIDTH 432 0
DWIDTH 6 0
BBX 6 15 0 -3
BITMAP
0C
14
24
48
50
A0
A0
A0
A0
A0
90
48
28
28
18
ENDCHAR
STARTCHAR 0029
ENCODING 41
SWIDTH 432 0
DWIDTH 6 0
BBX 6 15 0 -3
BITMAP
80
E0
90
50
28
28
14
14
14
28
28
48
90
A0
C0
ENDCHAR
STARTCHAR 002A
ENCODING 42
SWIDTH 432 0
DWIDTH 6 0
BBX 7 7 -1 7
BITMAP
38
EC
8A
44
44
B4
4C
ENDCHAR
STARTCHAR 002B
ENCODING 43
SWIDTH 432 0
DWIDTH 6 0
BBX 7 7 -1 3
BITMAP
18
28
26
C2
6E
28
30
ENDCHAR
STARTCHAR 002C
ENCODING 44
SWIDTH 432 0
DWIDTH 6 0
BBX 5 4 -1 -2
BITMAP
08
38
50
F0
ENDCHAR
STARTCHAR 002D
ENCODING 45
SWIDTH 432 0
DWIDTH 6 0
BBX 7 3 -1 5
BITMAP
02
FE
7E
ENDCHAR
STARTCHAR 002E
ENCODING 46
SWIDTH 216 0
DWIDTH 3 0
BBX 3 3 0 0
BITMAP
40
A0
E0
ENDCHAR
STARTCHAR 002F
ENCODING 47
SWIDTH 720 0
DWIDTH 10 0
BBX 12 15 -1 -3
BITMAP
00F0
0120
0240
0240
0480
0480
0900
0900
1200
2400
2400
4800
4800
9000
E000
ENDCHAR
STARTCHAR 0030
ENCODING 48
SWIDTH 576 0
DWIDTH 8 0
BBX 9 12 0 0
BITMAP
1E00
6100
4100
8080
8880
9480
9480
9480
8900
8100
4200
3C00
ENDCHAR
STARTCHAR 0031
ENCODING 49
SWIDTH 288 0
DWIDTH 4 0
BBX 5 13 -1 0
BITMAP
38
C8
C8
48
48
48
48
48
48
48
48
48
78
ENDCHAR
STARTCHAR 0032
ENCODING 50
SWIDTH 576 0
DWIDTH 8 0
BBX 10 14 -1 -1
BITMAP
1F80
E080
8640
BA40
4280
0480
1900
6200
4C00
9000
A000
AF80
9080
FF00
ENDCHAR
STARTCHAR 0033
ENCODING 51
SWIDTH 576 0
DWIDTH 8 0
BBX 10 13 -1 0
BITMAP
1E00
E100
8080
8E80
F500
0500
1880
1680
0940
0240
FC40
8080
7F00
ENDCHAR
STARTCHAR 0034
ENCODING 52
SWIDTH 504 0
DWIDTH 7 0
BBX 8 14 -1 -2
BITMAP
0F
E9
A9
A9
A9
91
61
19
09
09
0A
0A
0A
0E
ENDCHAR
STARTCHAR 0035
ENCODING 53
SWIDTH 648 0
DWIDTH 9 0
BBX 11 13 -1 0
BITMAP
00C0
F740
80C0
9F00
A000
5700
48C0
3F40
0120
0120
7C20
4040
3F80
ENDCHAR
STARTCHAR 0036
ENCODING 54
SWIDTH 576 0
DWIDTH 8 0
BBX 10 14 -1 0
BITMAP
0040
0380
0D00
1200
2400
4800
4E00
8100
8C80
9240
9240
8C80
8080
7F00
ENDCHAR
STARTCHAR 0037
ENCODING 55
SWIDTH 720 0
DWIDTH 10 0
BBX 12 16 -1 -3
BITMAP
F000
8FF0
8010
7F20
0120
0120
0240
0240
0280
0480
0480
0900
0900
0900
1200
0C00
ENDCHAR
STARTCHAR 0038
ENCODING 56
SWIDTH 576 0
DWIDTH 8 0
BBX 10 13 -1 0
BITMAP
1F00
6080
4C80
5280
4D00
3100
6080
8E80
B140
A240
9C80
4080
3F00
ENDCHAR
STARTCHAR 0039
ENCODING 57
SWIDTH 648 0
DWIDTH 9 0
BBX 10 17 0 -4
BITMAP
1F00
6080
8C40
9240
9240
8C80
4080
3C80
0900
0900
1200
1200
2400
2400
4800
5000
6000
ENDCHAR
STARTCHAR 003A
ENCODING 58
SWIDTH 576 0
DWIDTH 8 0
BBX 5 8 1 0
BITMAP
40
A0
A0
60
00
30
48
30
ENDCHAR
STARTCHAR 003B
ENCODING 59
SWIDTH 432 0
DWIDTH 6 0
BBX 5 10 0 -2
BITMAP
20
50
50
30
00
00
38
50
A0
E0
ENDCHAR
STARTCHAR 003C
ENCODING 60
SWIDTH 504 0
DWIDTH 7 0
BBX 8 7 0 4
BITMAP
01
07
39
CE
66
19
06
ENDCHAR
STARTCHAR 003D
ENCODING 61
SWIDTH 432 0
DWIDTH 6 0
BBX 7 6 -1 4
BITMAP
02
FE
7E
06
FA
FE
ENDCHAR
STARTCHAR 003E
ENCODING 62
SWIDTH 504 0
DWIDTH 7 0
BBX 8 7 -1 4
BITMAP
C0
B0
4C
3B
32
CC
70
ENDCHAR
STARTCHAR 003F
ENCODING 63
SWIDTH 504 0
DWIDTH 7 0
BBX 9 13 -1 0
BITMAP
1F00
E080
8E80
B300
4500
0A00
1400
2800
1000
0000
0800
1400
0C00
ENDCHAR
STARTCHAR 0040
ENCODING 64
SWIDTH 648 0
DWIDTH 9 0
BBX 11 12 -1 0
BITMAP
1E00
2180
4040
8620
8920
9320
9C20
9840
8F80
4600
2200
1E00
ENDCHAR
STARTCHAR 0041
ENCODING 65
SWIDTH 576 0
DWIDTH 8 0
BBX 14 16 -3 -3
BITMAP
0100
0300
0480
0480
0880
0940
1340
1020
2320
24A0
2890
4850
5048
9048
F028
003C
ENDCHAR
STARTCHAR 0042
ENCODING 66
SWIDTH 648 0
DWIDTH 9 0
BBX 11 14 0 -1
BITMAP
1F00
E100
8080
9F00
CD00
4900
40C0
2640
2920
2A20
2440
1080
1300
0C00
ENDCHAR
STARTCHAR 0043
ENCODING 67
SWIDTH 576 0
DWIDTH 8 0
BBX 10 12 -1 0
BITMAP
1E00
2180
C040
8E80
9100
9000
9000
9100
8E80
4080
2100
1E00
ENDCHAR
STARTCHAR 0044
ENCODING 68
SWIDTH 648 0
DWIDTH 9 0
BBX 10 13 0 0
BITMAP
3F00
C080
8080
8E80
4940
4940
4940
4940
4A80
4A80
2C80
2100
3E00
ENDCHAR
STARTCHAR 0045
ENCODING 69
SWIDTH 576 0
DWIDTH 8 0
BBX 12 16 -1 -3
BITMAP
0780
F880
8080
9F00
5000
5180
4E80
4080
4F00
4800
4800
4800
4FF0
4010
4010
7FF0
ENDCHAR
STARTCHAR 0046
ENCODING 70
SWIDTH 576 0
DWIDTH 8 0
BBX 9 16 -1 -2
BITMAP
0080
3F80
C080
8180
DE00
5000
5F00
4100
4300
4C00
4800
4800
4800
4800
4800
7800
ENDCHAR
STARTCHAR 0047
ENCODING 71
SWIDTH 576 0
DWIDTH 8 0
BBX 10 15 -1 -3
BITMAP
1E00
2180
4040
8E80
9100
9000
9700
94C0
8C40
4040
2040
1E80
0280
0480
0380
ENDCHAR
STARTCHAR 0048
ENCODING 72
SWIDTH 576 0
DWIDTH 8 0
BBX 10 17 -1 -3
BITMAP
F800
CBC0
4A40
4A40
4A40
4E40
4040
4840
4E40
4A40
4A40
4A40
4A40
4A40
4940
7940
00C0
ENDCHAR
STARTCHAR 0049
ENCODING 73
SWIDTH 576 0
DWIDTH 8 0
BBX 8 13 0 0
BITMAP
01
7F
81
82
EC
28
28
28
28
28
2F
C1
FF
ENDCHAR
STARTCHAR 004A
ENCODING 74
SWIDTH 648 0
DWIDTH 9 0
BBX 10 14 0 0
BITMAP
03C0
0240
0240
0240
0240
0240
0240
7240
9240
9280
8C80
8080
4100
3E00
ENDCHAR
STARTCHAR 004B
ENCODING 75
SWIDTH 576 0
DWIDTH 8 0
BBX 12 16 -1 -2
BITMAP
1000
7E00
9100
C200
4200
4400
4800
4800
4400
4200
4100
4880
4C60
4B10
48D0
7830
ENDCHAR
STARTCHAR 004C
ENCODING 76
SWIDTH 576 0
DWIDTH 8 0
BBX 12 16 -1 -3
BITMAP
3000
D000
D000
5000
5000
5000
5000
5000
5000
5000
5000
5000
5FF0
4010
4010
7FF0
ENDCHAR
STARTCHAR 004D
ENCODING 77
SWIDTH 720 0
DWIDTH 10 0
BBX 11 13 0 -1
BITMAP
0300
7500
8C80
8080
8080
8080
8080
8040
9C40
9240
9240
E240
01E0
ENDCHAR
STARTCHAR 004E
ENCODING 78
SWIDTH 576 0
DWIDTH 8 0
BBX 10 17 -1 -3
BITMAP
F000
8FC0
4C40
4C40
4440
4440
4040
4040
4840
4840
4840
4C40
4C40
4C40
4A40
7A40
01C0
ENDCHAR
STARTCHAR 004F
ENCODING 79
SWIDTH 720 0
DWIDTH 10 0
BBX 12 12 -1 0
BITMAP
0780
1840
2120
4210
4290
8390
8010
8020
8040
8040
4180
3E00
ENDCHAR
STARTCHAR 0050
ENCODING 80
SWIDTH 576 0
DWIDTH 8 0
BBX 9 13 0 -1
BITMAP
1F00
E080
8080
8F00
D500
5600
2C00
2800
2800
1400
1400
1400
0C00
ENDCHAR
STARTCHAR 0051
ENCODING 81
SWIDTH 576 0
DWIDTH 8 0
BBX 10 12 0 -1
BITMAP
0C00
3300
4100
8D00
9280
A280
A280
A500
9900
8080
6E40
1180
ENDCHAR
STARTCHAR 0052
ENCODING 82
SWIDTH 648 0
DWIDTH 9 0
BBX 11 14 -1 -1
BITMAP
0F80
7080
8040
8C80
7280
2D80
2880
2E40
2A40
2940
2940
1540
14A0
08C0
ENDCHAR
STARTCHAR 0053
ENCODING 83
SWIDTH 504 0
DWIDTH 7 0
BBX 11 13 -2 0
BITMAP
1F00
60E0
4C40
53C0
4800
2400
1300
0880
0680
6140
9E40
8080
7F00
ENDCHAR
STARTCHAR 0054
ENCODING 84
SWIDTH 576 0
DWIDTH 8 0
BBX 12 13 -2 0
BITMAP
FFF0
8010
8010
F9E0
0900
0900
0900
0900
0900
0900
0900
0900
0F00
ENDCHAR
STARTCHAR 0055
ENCODING 85
SWIDTH 648 0
DWIDTH 9 0
BBX 11 14 -1 0
BITMAP
F000
89E0
4920
4920
4920
4920
4920
4920
4920
4A40
4640
2040
2080
1F00
ENDCHAR
STARTCHAR 0056
ENCODING 86
SWIDTH 720 0
DWIDTH 10 0
BBX 13 14 -1 -1
BITMAP
F800
8878
4890
4890
2510
2520
2520
1320
1240
1040
0840
0880
0880
0780
ENDCHAR
STARTCHAR 0057
ENCODING 87
SWIDTH 720 0
DWIDTH 10 0
BBX 11 14 -1 -1
BITMAP
00E0
0320
F220
9220
9220
9640
8E40
4A40
4040
4040
4040
4440
2C40
3BC0
ENDCHAR
STARTCHAR 0058
ENCODING 88
SWIDTH 720 0
DWIDTH 10 0
BBX 12 15 -1 -3
BITMAP
F0F0
4920
2640
2240
1080
1080
0900
0900
1080
1080
2640
4A40
5120
90E0
E000
ENDCHAR
STARTCHAR 0059
ENCODING 89
SWIDTH 720 0
DWIDTH 10 0
BBX 12 15 -1 -2
BITMAP
F870
4890
2520
2520
1320
1240
0840
0880
0480
0480
0900
0900
0900
1200
0C00
ENDCHAR
STARTCHAR 005A
ENCODING 90
SWIDTH 720 0
DWIDTH 10 0
BBX 12 15 -2 -1
BITMAP
FFF0
8020
8020
7E20
0440
0440
0880
0880
0900
1100
1200
2200
23F0
4010
7FF0
ENDCHAR
STARTCHAR 005B
ENCODING 91
SWIDTH 432 0
DWIDTH 6 0
BBX 7 16 0 -3
BITMAP
FE
82
86
98
90
90
90
90
90
90
90
90
9C
84
84
F8
ENDCHAR
STARTCHAR 005C
ENCODING 92
SWIDTH 720 0
DWIDTH 10 0
BBX 10 15 0 -2
BITMAP
C000
B000
9000
4800
4800
2400
2400
1200
1200
0900
0900
0480
0480
0240
01C0
ENDCHAR
STARTCHAR 005D
ENCODING 93
SWIDTH 432 0
DWIDTH 6 0
BBX 6 15 0 -2
BITMAP
7C
84
84
74
14
14
14
14
14
14
14
74
84
84
F8
ENDCHAR
STARTCHAR 005E
ENCODING 94
SWIDTH 576 0
DWIDTH 8 0
BBX 7 3 0 10
BITMAP
7C
BA
46
ENDCHAR
STARTCHAR 005F
ENCODING 95
SWIDTH 576 0
DWIDTH 8 0
BBX 10 2 -1 -1
BITMAP
7FC0
FFC0
ENDCHAR
STARTCHAR 0060
ENCODING 96
SWIDTH 576 0
DWIDTH 8 0
BBX 5 4 1 9
BITMAP
40
B0
88
70
ENDCHAR
STARTCHAR 0061
ENCODING 97
SWIDTH 504 0
DWIDTH 7 0
BBX 8 10 0 0
BITMAP
01
1F
21
51
99
99
81
81
81
7F
ENDCHAR
STARTCHAR 0062
ENCODING 98
SWIDTH 504 0
DWIDTH 7 0
BBX 9 14 -1 0
BITMAP
0800
3800
C800
C800
4800
4E00
4100
4480
4680
4680
4080
4100
4100
7E00
ENDCHAR
STARTCHAR 0063
ENCODING 99
SWIDTH 432 0
DWIDTH 6 0
BBX 8 9 -1 0
BITMAP
1C
62
49
B6
A0
A7
9A
82
7C
ENDCHAR
STARTCHAR 0064
ENCODING 100
SWIDTH 504 0
DWIDTH 7 0
BBX 8 16 0 0
BITMAP
01
07
05
05
05
05
05
0D
31
49
99
99
81
81
41
3F
ENDCHAR
STARTCHAR 0065
ENCODING 101
SWIDTH 576 0
DWIDTH 8 0
BBX 8 9 0 0
BITMAP
0C
73
5A
AA
B4
AA
8D
81
7E
ENDCHAR
STARTCHAR 0066
ENCODING 102
SWIDTH 504 0
DWIDTH 7 0
BBX 10 16 -2 -2
BITMAP
0380
1C40
2240
2580
2400
2400
E700
8100
6700
2400
2400
2400
2400
2400
2400
3800
ENDCHAR
STARTCHAR 0067
ENCODING 103
SWIDTH 504 0
DWIDTH 7 0
BBX 8 16 0 -6
BITMAP
01
1F
21
49
99
89
81
81
81
7D
05
C5
A9
9A
82
7C
ENDCHAR
STARTCHAR 0068
ENCODING 104
SWIDTH 648 0
DWIDTH 9 0
BBX 10 14 0 0
BITMAP
E000
A000
A000
A000
A000
9600
8100
8880
9480
9440
9240
9240
9240
F3C0
ENDCHAR
STARTCHAR 0069
ENCODING 105
SWIDTH 288 0
DWIDTH 4 0
BBX 5 15 -1 -1
BITMAP
60
50
50
20
00
18
E8
48
48
48
48
48
48
48
78
ENDCHAR
STARTCHAR 006A
ENCODING 106
SWIDTH 504 0
DWIDTH 7 0
BBX 8 20 0 -6
BITMAP
04
0A
04
00
01
0F
15
0D
05
05
05
05
05
05
05
C5
A9
9A
82
7C
ENDCHAR
STARTCHAR 006B
ENCODING 107
SWIDTH 504 0
DWIDTH 7 0
BBX 10 16 -1 -2
BITMAP
1000
7000
9000
D000
5000
5000
5000
53C0
5D00
4200
4400
4A00
4D80
4A40
4940
78C0
ENDCHAR
STARTCHAR 006C
ENCODING 108
SWIDTH 288 0
DWIDTH 4 0
BBX 5 15 -1 -2
BITMAP
18
E8
C8
48
48
48
48
48
48
48
48
48
48
48
78
ENDCHAR
STARTCHAR 006D
ENCODING 109
SWIDTH 864 0
DWIDTH 12 0
BBX 13 9 0 0
BITMAP
FFC0
8020
8090
9990
9888
94C8
94C8
94C8
F778
ENDCHAR
STARTCHAR 006E
ENCODING 110
SWIDTH 648 0
DWIDTH 9 0
BBX 10 9 0 0
BITMAP
FE00
8100
8880
9480
9440
9240
9240
9240
F3C0
ENDCHAR
STARTCHAR 006F
ENCODING 111
SWIDTH 504 0
DWIDTH 7 0
BBX 8 9 0 0
BITMAP
1C
22
59
9D
9D
81
82
84
78
ENDCHAR
STARTCHAR 0070
ENCODING 112
SWIDTH 504 0
DWIDTH 7 0
BBX 9 16 -1 -6
BITMAP
1000
7E00
9100
C480
4A80
4E80
4480
4100
4200
4C00
4800
4800
4800
4800
4800
7800
ENDCHAR
STARTCHAR 0071
ENCODING 113
SWIDTH 504 0
DWIDTH 7 0
BBX 8 15 0 -6
BITMAP
1F
21
59
99
99
81
81
81
7D
05
05
05
05
05
07
ENDCHAR
STARTCHAR 0072
ENCODING 114
SWIDTH 576 0
DWIDTH 8 0
BBX 8 9 0 0
BITMAP
FE
81
89
96
90
90
90
90
F0
ENDCHAR
STARTCHAR 0073
ENCODING 115
SWIDTH 576 0
DWIDTH 8 0
BBX 9 9 -1 0
BITMAP
7E00
9980
A780
9E00
4100
7C80
BC80
8100
7E00
ENDCHAR
STARTCHAR 0074
ENCODING 116
SWIDTH 648 0
DWIDTH 9 0
BBX 10 14 -1 0
BITMAP
1800
2800
2800
2800
E800
8700
8100
EF00
2800
2880
2940
2640
2080
1F00
ENDCHAR
STARTCHAR 0075
ENCODING 117
SWIDTH 648 0
DWIDTH 9 0
BBX 10 8 0 1
BITMAP
F380
9240
9240
9440
9480
8880
4100
3E00
ENDCHAR
STARTCHAR 0076
ENCODING 118
SWIDTH 720 0
DWIDTH 10 0
BBX 10 10 -1 -1
BITMAP
F1C0
8A40
4A40
4C40
4480
2080
2100
1100
1100
1E00
ENDCHAR
STARTCHAR 0077
ENCODING 119
SWIDTH 1008 0
DWIDTH 14 0
BBX 16 10 -1 -1
BITMAP
F3C7
8A49
4A51
4C32
4412
2004
2084
1184
1188
1E78
ENDCHAR
STARTCHAR 0078
ENCODING 120
SWIDTH 720 0
DWIDTH 10 0
BBX 11 10 -1 -1
BITMAP
F1E0
4A40
2640
2080
1100
0900
1080
2480
4A40
79E0
ENDCHAR
STARTCHAR 0079
ENCODING 121
SWIDTH 648 0
DWIDTH 9 0
BBX 11 14 -1 -6
BITMAP
3100
D1E0
4A40
4A40
2480
2480
1080
1100
0900
0A00
1200
1200
2400
1C00
ENDCHAR
STARTCHAR 007A
ENCODING 122
SWIDTH 720 0
DWIDTH 10 0
BBX 10 10 0 -1
BITMAP
FFC0
8080
8100
F900
0A00
1400
2800
4FC0
8040
FFC0
ENDCHAR
STARTCHAR 007B
ENCODING 123
SWIDTH 432 0
DWIDTH 6 0
BBX 6 15 0 -3
BITMAP
0C
14
24
48
50
A0
A0
A0
A0
A0
90
48
28
28
18
ENDCHAR
STARTCHAR 007C
ENCODING 124
SWIDTH 288 0
DWIDTH 4 0
BBX 4 20 0 -5
BITMAP
10
F0
90
90
90
90
90
90
90
90
90
90
90
90
90
90
90
90
90
E0
ENDCHAR
STARTCHAR 007D
ENCODING 125
SWIDTH 432 0
DWIDTH 6 0
BBX 6 15 0 -3
BITMAP
80
E0
90
50
28
28
14
14
14
28
28
48
90
A0
C0
ENDCHAR
STARTCHAR 007E
ENCODING 126
SWIDTH 576 0
DWIDTH 8 0
BBX 7 3 0 10
BITMAP
60
FE
1C
ENDCHAR
STARTCHAR 00A1
ENCODING 161
SWIDTH 216 0
DWIDTH 3 0
BBX 4 14 0 0
BITMAP
E0
A0
60
00
00
E0
A0
A0
90
90
90
90
B0
C0
ENDCHAR
STARTCHAR 00A2
ENCODING 162
SWIDTH 648 0
DWIDTH 9 0
BBX 11 14 -1 0
BITMAP
1E00
1200
2180
4040
8060
8E80
9100
9000
9180
8E40
8040
4080
3300
1E00
ENDCHAR
STARTCHAR 00A3
ENCODING 163
SWIDTH 576 0
DWIDTH 8 0
BBX 13 16 -2 -3
BITMAP
0380
1C40
2340
2480
2400
E300
8100
8100
6300
2400
2400
2400
27F8
2008
2008
3FF8
ENDCHAR
STARTCHAR 00A5
ENCODING 165
SWIDTH 720 0
DWIDTH 10 0
BBX 12 15 -1 -2
BITMAP
F0F0
4920
4920
2520
2640
1240
3060
2020
3860
3CE0
2040
39C0
0A00
1200
1E00
ENDCHAR
STARTCHAR 00A6
ENCODING 166
SWIDTH 360 0
DWIDTH 5 0
BBX 5 20 0 -5
BITMAP
18
E8
88
88
88
88
88
F8
00
F0
90
90
90
90
90
90
90
90
90
E0
ENDCHAR
STARTCHAR 00A8
ENCODING 168
SWIDTH 576 0
DWIDTH 8 0
BBX 8 4 0 10
BITMAP
42
A5
A5
42
ENDCHAR
STARTCHAR 00AB
ENCODING 171
SWIDTH 936 0
DWIDTH 13 0
BBX 14 7 0 4
BITMAP
0104
071C
39E4
CF38
6698
1964
061C
ENDCHAR
STARTCHAR 00AD
ENCODING 173
SWIDTH 360 0
DWIDTH 5 0
BBX 6 3 -1 5
BITMAP
0C
F4
7C
ENDCHAR
STARTCHAR 00B1
ENCODING 177
SWIDTH 504 0
DWIDTH 7 0
BBX 7 9 0 1
BITMAP
18
28
26
C2
6E
28
30
7E
FE
ENDCHAR
STARTCHAR 00B4
ENCODING 180
SWIDTH 576 0
DWIDTH 8 0
BBX 5 4 1 9
BITMAP
10
70
88
70
ENDCHAR
STARTCHAR 00B5
ENCODING 181
SWIDTH 576 0
DWIDTH 8 0
BBX 9 13 0 -3
BITMAP
F300
9280
9280
9280
9480
9500
8900
8100
9600
9800
9000
9000
F000
ENDCHAR
STARTCHAR 00B7
ENCODING 183
SWIDTH 216 0
DWIDTH 3 0
BBX 3 3 0 6
BITMAP
E0
A0
40
ENDCHAR
STARTCHAR 00B8
ENCODING 184
SWIDTH 648 0
DWIDTH 9 0
BBX 6 5 2 -4
BITMAP
70
28
24
C4
78
ENDCHAR
STARTCHAR 00BB
ENCODING 187
SWIDTH 936 0
DWIDTH 13 0
BBX 15 7 -1 4
BITMAP
C100
B2C0
4D38
3BE6
32CC
CD30
71C0
ENDCHAR
STARTCHAR 00BF
ENCODING 191
SWIDTH 576 0
DWIDTH 8 0
BBX 9 13 -1 0
BITMAP
1C00
1400
0C00
0000
0400
0A00
1600
2800
5000
A180
BE80
8080
7F00
ENDCHAR
STARTCHAR 00C0
ENCODING 192
SWIDTH 576 0
DWIDTH 8 0
BBX 14 20 -3 -4
BITMAP
0700
0880
0780
0000
0100
0300
0480
0480
0880
0940
1340
1020
2320
24A0
2890
4850
5048
9048
F028
003C
ENDCHAR
STARTCHAR 00C1
ENCODING 193
SWIDTH 576 0
DWIDTH 8 0
BBX 14 20 -3 -3
BITMAP
0380
0C40
0780
0000
0100
0300
0480
0480
0880
0940
1340
1020
2320
24A0
2890
4850
5048
9048
F028
003C
ENDCHAR
STARTCHAR 00C2
ENCODING 194
SWIDTH 576 0
DWIDTH 8 0
BBX 14 20 -3 -4
BITMAP
07C0
1920
0EE0
0100
0100
0300
0280
0480
0540
0B40
0B40
1020
1720
2490
2490
4850
4848
9028
F024
001C
ENDCHAR
STARTCHAR 00C3
ENCODING 195
SWIDTH 576 0
DWIDTH 8 0
BBX 14 21 -3 -4
BITMAP
0400
1BC0
1FC0
0000
0000
0100
0300
0480
0480
0880
0940
1340
1020
2720
24A0
2890
4850
5048
9048
F028
003C
ENDCHAR
STARTCHAR 00C4
ENCODING 196
SWIDTH 576 0
DWIDTH 8 0
BBX 14 21 -3 -4
BITMAP
0840
14A0
14A0
0840
0000
0300
0300
0500
0480
0880
0A40
1540
1240
2720
2920
4890
5090
9050
9048
E028
003C
ENDCHAR
STARTCHAR 00C5
ENCODING 197
SWIDTH 504 0
DWIDTH 7 0
BBX 13 21 -3 -4
BITMAP
0200
0500
0500
0200
0000
0200
0500
0500
0900
0880
1280
1640
2040
2640
4920
4920
5090
9090
9050
E048
0038
ENDCHAR
STARTCHAR 00C6
ENCODING 198
SWIDTH 936 0
DWIDTH 13 0
BBX 19 16 -3 -3
BITMAP
003F00
01C100
020100
021E00
042000
042300
093D00
0B0100
101E00
102000
27A000
24A000
489FE0
488020
907E20
F001C0
ENDCHAR
STARTCHAR 00C7
ENCODING 199
SWIDTH 576 0
DWIDTH 8 0
BBX 10 16 -1 -4
BITMAP
1E00
2180
4040
8040
8E80
9100
9000
9100
8E80
8040
4080
2300
1A00
0900
1100
1E00
ENDCHAR
STARTCHAR 00C8
ENCODING 200
SWIDTH 576 0
DWIDTH 8 0
BBX 12 20 -1 -3
BITMAP
0800
3600
2100
1E00
0780
F880
8080
9F00
5000
5180
4E80
4080
4F00
4800
4800
4800
4FF0
4010
4010
7FF0
ENDCHAR
STARTCHAR 00C9
ENCODING 201
SWIDTH 576 0
DWIDTH 8 0
BBX 12 20 -1 -3
BITMAP
0600
1A00
2300
1C00
0780
F880
8080
9F00
5000
5180
4E80
4080
4F00
4800
4800
4800
4FF0
4010
4010
7FF0
ENDCHAR
STARTCHAR 00CA
ENCODING 202
SWIDTH 576 0
DWIDTH 8 0
BBX 12 20 -1 -3
BITMAP
0C00
3380
5E80
2100
0780
F880
8080
9F00
5000
5180
4E80
4080
4F00
4800
4800
4800
4FF0
4010
4010
7FF0
ENDCHAR
STARTCHAR 00CB
ENCODING 203
SWIDTH 576 0
DWIDTH 8 0
BBX 12 20 -1 -3
BITMAP
3100
5A80
5280
3100
0080
7F80
8080
8700
D800
5080
5F80
4080
4F00
4800
4800
4800
4FF0
4010
4010
7FF0
ENDCHAR
STARTCHAR 00CC
ENCODING 204
SWIDTH 576 0
DWIDTH 8 0
BBX 8 16 0 0
BITMAP
38
24
1C
01
7F
81
82
EC
28
28
28
28
28
2F
C1
FF
ENDCHAR
STARTCHAR 00CD
ENCODING 205
SWIDTH 576 0
DWIDTH 8 0
BBX 8 16 0 1
BITMAP
1C
22
3C
01
7F
81
82
EC
28
28
28
28
28
2F
C1
FF
ENDCHAR
STARTCHAR 00CE
ENCODING 206
SWIDTH 576 0
DWIDTH 8 0
BBX 8 16 0 0
BITMAP
3C
CB
77
01
7F
81
82
EC
28
28
28
28
28
2F
C1
FF
ENDCHAR
STARTCHAR 00CF
ENCODING 207
SWIDTH 648 0
DWIDTH 9 0
BBX 9 17 0 0
BITMAP
2180
5280
5100
2000
0080
7F80
8080
8300
E400
2400
2800
2800
2800
2800
2780
C080
FF80
ENDCHAR
STARTCHAR 00D0
ENCODING 208
SWIDTH 648 0
DWIDTH 9 0
BBX 10 13 0 0
BITMAP
3F00
C080
8080
8C80
CA40
4A40
CE40
8640
CC80
4C80
2080
2100
3E00
ENDCHAR
STARTCHAR 00D1
ENCODING 209
SWIDTH 576 0
DWIDTH 8 0
BBX 10 21 -1 -3
BITMAP
1000
6F80
7080
0F00
F000
8FC0
4C40
4C40
4440
4440
4040
4040
4840
4840
4840
4C40
4C40
4C40
4A40
7A40
01C0
ENDCHAR
STARTCHAR 00D2
ENCODING 210
SWIDTH 720 0
DWIDTH 10 0
BBX 12 17 -1 0
BITMAP
0800
3400
2300
1E00
0000
0780
1840
2120
4210
4290
8390
8010
8020
8040
8040
4180
3E00
ENDCHAR
STARTCHAR 00D3
ENCODING 211
SWIDTH 720 0
DWIDTH 10 0
BBX 12 17 -1 0
BITMAP
0180
0680
0480
0300
0000
0780
1840
2120
4210
4290
8390
8010
8020
8040
8040
4180
3E00
ENDCHAR
STARTCHAR 00D4
ENCODING 212
SWIDTH 720 0
DWIDTH 10 0
BBX 12 17 -1 0
BITMAP
0600
19C0
2FC0
1000
0000
0780
1840
2120
4210
4290
8390
8010
8020
8040
8040
4180
3E00
ENDCHAR
STARTCHAR 00D5
ENCODING 213
SWIDTH 720 0
DWIDTH 10 0
BBX 12 18 -1 0
BITMAP
0C00
33C0
1FC0
0000
0000
0000
0780
1840
2120
4210
4290
8390
8010
8020
8040
8040
4180
3E00
ENDCHAR
STARTCHAR 00D6
ENCODING 214
SWIDTH 720 0
DWIDTH 10 0
BBX 12 18 -1 0
BITMAP
1080
2940
2940
1080
0000
0000
0780
1840
2120
4210
4290
8390
8010
8020
8040
8040
4180
3E00
ENDCHAR
STARTCHAR 00D7
ENCODING 215
SWIDTH 504 0
DWIDTH 7 0
BBX 8 6 0 5
BITMAP
E6
9A
44
42
93
6C
ENDCHAR
STARTCHAR 00D8
ENCODING 216
SWIDTH 792 0
DWIDTH 11 0
BBX 12 13 0 0
BITMAP
07F0
0810
2120
4210
4290
8390
8010
8020
8020
8040
8180
BE00
4000
ENDCHAR
STARTCHAR 00D9
ENCODING 217
SWIDTH 648 0
DWIDTH 9 0
BBX 11 17 -1 0
BITMAP
1800
1600
1900
F600
89E0
4920
4920
4920
4920
4920
4920
4920
4A40
4640
2040
2080
1F00
ENDCHAR
STARTCHAR 00DA
ENCODING 218
SWIDTH 648 0
DWIDTH 9 0
BBX 11 17 -1 0
BITMAP
0600
1900
1600
F800
89E0
4920
4920
4920
4920
4920
4920
4920
4A40
4640
2040
2080
1F00
ENDCHAR
STARTCHAR 00DB
ENCODING 219
SWIDTH 648 0
DWIDTH 9 0
BBX 11 17 -1 0
BITMAP
0E00
3180
3F80
F000
89E0
4920
4920
4920
4920
4920
4920
4920
4A40
4640
2040
2080
1F00
ENDCHAR
STARTCHAR 00DC
ENCODING 220
SWIDTH 648 0
DWIDTH 9 0
BBX 11 18 -1 0
BITMAP
0180
1240
2A40
1180
F800
C9E0
4920
4920
4920
4920
4920
4920
4920
4A40
4640
2040
2080
1F00
ENDCHAR
STARTCHAR 00DD
ENCODING 221
SWIDTH 720 0
DWIDTH 10 0
BBX 12 19 -1 -2
BITMAP
0600
1900
1600
0800
F870
4890
2520
2520
1320
1240
0840
0880
0480
0480
0900
0900
0900
1200
0C00
ENDCHAR
STARTCHAR 00DF
ENCODING 223
SWIDTH 576 0
DWIDTH 8 0
BBX 9 14 1 -1
BITMAP
3E00
C100
8900
B600
9A00
9100
8D00
5280
5280
4C80
4D00
2A00
2800
1400
ENDCHAR
STARTCHAR 00E0
ENCODING 224
SWIDTH 504 0
DWIDTH 7 0
BBX 8 13 0 0
BITMAP
30
4C
34
09
1F
21
51
99
99
81
81
81
7F
ENDCHAR
STARTCHAR 00E1
ENCODING 225
SWIDTH 504 0
DWIDTH 7 0
BBX 8 13 0 0
BITMAP
18
24
48
31
1F
21
51
99
99
81
81
81
7F
ENDCHAR
STARTCHAR 00E2
ENCODING 226
SWIDTH 504 0
DWIDTH 7 0
BBX 8 14 0 0
BITMAP
18
E7
FD
02
01
1F
21
51
99
99
81
81
81
7F
ENDCHAR
STARTCHAR 00E3
ENCODING 227
SWIDTH 504 0
DWIDTH 7 0
BBX 8 14 0 0
BITMAP
60
9E
E2
1C
01
1F
21
51
99
99
81
81
81
7F
ENDCHAR
STARTCHAR 00E4
ENCODING 228
SWIDTH 504 0
DWIDTH 7 0
BBX 8 14 0 0
BITMAP
46
A5
A5
42
01
1F
21
49
99
99
81
81
41
3F
ENDCHAR
STARTCHAR 00E5
ENCODING 229
SWIDTH 504 0
DWIDTH 7 0
BBX 8 14 0 0
BITMAP
18
14
14
08
01
1F
21
49
99
89
81
81
81
7F
ENDCHAR
STARTCHAR 00E6
ENCODING 230
SWIDTH 936 0
DWIDTH 13 0
BBX 13 10 0 0
BITMAP
0100
1FE0
2010
5890
99E0
89C0
81B0
80C8
8010
7FE0
ENDCHAR
STARTCHAR 00E7
ENCODING 231
SWIDTH 576 0
DWIDTH 8 0
BBX 10 16 -1 -4
BITMAP
1E00
2180
4040
8040
8E80
9100
9000
9100
8E80
8040
4080
2300
1A00
0900
1100
1E00
ENDCHAR
STARTCHAR 00E8
ENCODING 232
SWIDTH 576 0
DWIDTH 8 0
BBX 8 13 0 1
BITMAP
38
46
3C
00
0C
73
5A
AA
B4
AA
8D
81
7E
ENDCHAR
STARTCHAR 00E9
ENCODING 233
SWIDTH 576 0
DWIDTH 8 0
BBX 8 13 0 1
BITMAP
1C
64
38
00
0C
73
5A
AA
B4
AA
8D
81
7E
ENDCHAR
STARTCHAR 00EA
ENCODING 234
SWIDTH 504 0
DWIDTH 7 0
BBX 8 14 0 0
BITMAP
3C
DB
E7
00
00
0C
73
9A
AC
B4
AE
89
81
7E
ENDCHAR
STARTCHAR 00EB
ENCODING 235
SWIDTH 576 0
DWIDTH 8 0
BBX 8 14 0 0
BITMAP
46
A5
A5
42
00
0C
73
59
AA
B4
AB
8D
81
7E
ENDCHAR
STARTCHAR 00EC
ENCODING 236
SWIDTH 288 0
DWIDTH 4 0
BBX 7 14 -1 -1
BITMAP
18
26
1A
04
38
C8
C8
48
48
48
48
48
48
78
ENDCHAR
STARTCHAR 00ED
ENCODING 237
SWIDTH 288 0
DWIDTH 4 0
BBX 7 14 -1 -1
BITMAP
0C
32
24
18
38
C8
C8
48
48
48
48
48
48
78
ENDCHAR
STARTCHAR 00EE
ENCODING 238
SWIDTH 216 0
DWIDTH 3 0
BBX 8 15 -3 -1
BITMAP
08
77
BD
42
00
0E
32
32
12
12
12
12
12
12
1E
ENDCHAR
STARTCHAR 00EF
ENCODING 239
SWIDTH 360 0
DWIDTH 5 0
BBX 9 15 -2 -1
BITMAP
C300
A580
A580
4300
0000
0E00
7200
3200
1200
1200
1200
1200
1200
1200
1E00
ENDCHAR
STARTCHAR 00F0
ENCODING 240
SWIDTH 504 0
DWIDTH 7 0
BBX 8 15 0 0
BITMAP
1C
22
29
15
05
05
1D
21
51
99
99
81
81
81
7F
ENDCHAR
STARTCHAR 00F1
ENCODING 241
SWIDTH 648 0
DWIDTH 9 0
BBX 10 14 0 0
BITMAP
3100
CF00
E100
1E00
0000
FE00
8100
8880
9480
9440
9240
9240
9240
F3C0
ENDCHAR
STARTCHAR 00F2
ENCODING 242
SWIDTH 504 0
DWIDTH 7 0
BBX 8 13 0 0
BITMAP
30
4C
34
08
1C
22
59
9D
9D
81
82
84
78
ENDCHAR
STARTCHAR 00F3
ENCODING 243
SWIDTH 504 0
DWIDTH 7 0
BBX 8 13 0 0
BITMAP
18
24
48
30
1C
22
59
9D
9D
81
82
84
78
ENDCHAR
STARTCHAR 00F4
ENCODING 244
SWIDTH 504 0
DWIDTH 7 0
BBX 8 14 0 0
BITMAP
18
E7
FD
02
00
1C
22
59
9D
9D
81
82
84
78
ENDCHAR
STARTCHAR 00F5
ENCODING 245
SWIDTH 504 0
DWIDTH 7 0
BBX 8 14 0 0
BITMAP
60
9E
E2
1C
00
1C
22
59
9D
9D
81
82
84
78
ENDCHAR
STARTCHAR 00F6
ENCODING 246
SWIDTH 504 0
DWIDTH 7 0
BBX 8 14 0 0
BITMAP
46
A5
A5
42
00
1C
22
5B
9D
9D
81
82
84
78
ENDCHAR
STARTCHAR 00F7
ENCODING 247
SWIDTH 432 0
DWIDTH 6 0
BBX 6 10 0 2
BITMAP
20
50
50
20
FC
FC
20
50
50
30
ENDCHAR
STARTCHAR 00F8
ENCODING 248
SWIDTH 432 0
DWIDTH 6 0
BBX 8 10 -1 -1
BITMAP
1F
21
5A
9D
8D
81
82
84
B8
40
ENDCHAR
STARTCHAR 00F9
ENCODING 249
SWIDTH 648 0
DWIDTH 9 0
BBX 10 12 0 0
BITMAP
1C00
2200
1E00
0000
F380
9240
9240
9440
9480
8880
4100
3E00
ENDCHAR
STARTCHAR 00FA
ENCODING 250
SWIDTH 648 0
DWIDTH 9 0
BBX 10 12 0 1
BITMAP
0E00
3100
1E00
0000
F380
9240
9240
9440
9480
8880
4100
3E00
ENDCHAR
STARTCHAR 00FB
ENCODING 251
SWIDTH 648 0
DWIDTH 9 0
BBX 10 13 0 0
BITMAP
1E00
E980
7780
0000
0000
F380
9240
9240
9440
9480
8880
4100
3E00
ENDCHAR
STARTCHAR 00FC
ENCODING 252
SWIDTH 648 0
DWIDTH 9 0
BBX 10 14 0 0
BITMAP
6600
5500
5500
2200
0000
C000
B380
9240
9240
9440
9480
8880
4100
3E00
ENDCHAR
STARTCHAR 00FD
ENCODING 253
SWIDTH 648 0
DWIDTH 9 0
BBX 11 19 -1 -6
BITMAP
0200
1E00
2100
1E00
0000
3100
D1E0
4A40
4A40
2480
2480
1080
1100
0900
0A00
1200
1200
2400
1C00
ENDCHAR
STARTCHAR 00FF
ENCODING 255
SWIDTH 648 0
DWIDTH 9 0
BBX 10 20 -1 -6
BITMAP
2380
5280
5100
2000
0000
0000
6180
9240
9240
4A80
4480
2080
2100
1100
1200
1200
2200
2400
2400
1800
ENDCHAR
STARTCHAR 0152
ENCODING 338
SWIDTH 1152 0
DWIDTH 16 0
BBX 20 16 0 -2
BITMAP
000F80
07F080
100080
200F00
421000
821000
829F80
838080
800300
801C00
801000
809000
415FF0
3E4010
004010
007FF0
ENDCHAR
STARTCHAR 0153
ENCODING 339
SWIDTH 936 0
DWIDTH 13 0
BBX 13 9 0 0
BITMAP
1800
26E0
51D8
9D50
99A0
8170
80C8
8008
7FF0
ENDCHAR
STARTCHAR 0160
ENCODING 352
SWIDTH 504 0
DWIDTH 7 0
BBX 11 17 -2 0
BITMAP
2000
5B80
3480
0F00
1F00
60E0
4C40
53C0
4800
2400
1300
0880
0680
6140
9E40
8080
7F00
ENDCHAR
STARTCHAR 0161
ENCODING 353
SWIDTH 576 0
DWIDTH 8 0
BBX 9 13 -1 1
BITMAP
F700
4900
3E00
0000
7E00
9980
A780
9E00
4100
7C80
BC80
8100
7E00
ENDCHAR
STARTCHAR 0178
ENCODING 376
SWIDTH 792 0
DWIDTH 11 0
BBX 12 20 -1 -2
BITMAP
1180
2A40
2A40
1180
0000
F870
4890
2490
2520
1320
1220
0840
0840
0480
0480
0880
0900
0900
1200
0C00
ENDCHAR
STARTCHAR 0192
ENCODING 402
SWIDTH 576 0
DWIDTH 8 0
BBX 13 20 -4 -6
BITMAP
0070
0388
0468
0490
0480
1CE0
1020
1CE0
0480
0480
0480
0480
0480
0480
0480
C480
A500
9900
8100
7E00
ENDCHAR
STARTCHAR 02C6
ENCODING 710
SWIDTH 576 0
DWIDTH 8 0
BBX 7 3 0 10
BITMAP
7C
BA
46
ENDCHAR
STARTCHAR 02DC
ENCODING 732
SWIDTH 576 0
DWIDTH 8 0
BBX 7 3 0 10
BITMAP
60
FE
1C
ENDCHAR
STARTCHAR 2013
ENCODING 8211
SWIDTH 648 0
DWIDTH 9 0
BBX 10 3 -1 5
BITMAP
00C0
FF40
7F80
ENDCHAR
STARTCHAR 2014
ENCODING 8212
SWIDTH 432 0
DWIDTH 6 0
BBX 7 3 -1 5
BITMAP
02
FE
7E
ENDCHAR
STARTCHAR 2018
ENCODING 8216
SWIDTH 216 0
DWIDTH 3 0
BBX 3 4 0 8
BITMAP
E0
A0
A0
E0
ENDCHAR
STARTCHAR 2019
ENCODING 8217
SWIDTH 216 0
DWIDTH 3 0
BBX 3 4 0 8
BITMAP
E0
A0
A0
E0
ENDCHAR
STARTCHAR 201A
ENCODING 8218
SWIDTH 216 0
DWIDTH 3 0
BBX 3 4 0 0
BITMAP
E0
A0
A0
E0
ENDCHAR
STARTCHAR 201C
ENCODING 8220
SWIDTH 432 0
DWIDTH 6 0
BBX 7 4 -1 8
BITMAP
EE
AA
AA
EE
ENDCHAR
STARTCHAR 201D
ENCODING 8221
SWIDTH 432 0
DWIDTH 6 0
BBX 7 4 -1 8
BITMAP
EE
AA
AA
EE
ENDCHAR
STARTCHAR 201E
ENCODING 8222
SWIDTH 432 0
DWIDTH 6 0
BBX 7 4 -1 0
BITMAP
EE
AA
AA
EE
ENDCHAR
STARTCHAR 2020
ENCODING 8224
SWIDTH 432 0
DWIDTH 6 0
BBX 6 7 0 5
BITMAP
30
CC
84
CC
30
20
20
ENDCHAR
STARTCHAR 2021
ENCODING 8225
SWIDTH 432 0
DWIDTH 6 0
BBX 6 9 0 2
BITMAP
20
FC
84
FC
30
FC
84
FC
20
ENDCHAR
STARTCHAR 2022
ENCODING 8226
SWIDTH 216 0
DWIDTH 3 0
BBX 3 3 0 6
BITMAP
E0
A0
40
ENDCHAR
STARTCHAR 2026
ENCODING 8230
SWIDTH 648 0
DWIDTH 9 0
BBX 9 3 0 0
BITMAP
C900
B680
F980
ENDCHAR
STARTCHAR 2030
ENCODING 8240
SWIDTH 1008 0
DWIDTH 14 0
BBX 16 16 -1 -3
BITMAP
00F0
7120
8920
8A40
8C40
7480
0900
0900
1200
12E6
2519
2519
4919
90E6
9000
E000
ENDCHAR
STARTCHAR 2039
ENCODING 8249
SWIDTH 504 0
DWIDTH 7 0
BBX 8 7 0 4
BITMAP
01
07
39
CE
66
19
06
ENDCHAR
STARTCHAR 203A
ENCODING 8250
SWIDTH 504 0
DWIDTH 7 0
BBX 8 7 -1 4
BITMAP
C0
B0
4C
3B
32
CC
70
ENDCHAR
ENDFONT
